<svg  xmlns="http://www.w3.org/2000/svg" width="40" height="43" role="presentation" viewBox="0 0 48 48"><path stroke="#e9e9f0" d="M29,36.7441156 L29.4989618,36.4552415 C35.3307884,33.0789037 39,26.8556955 39,20 C39,9.51395142 30.4860486,1 20,1 C9.51395142,1 1,9.51395142 1,20 C1,30.4860486 9.51395142,39 20,39 C20.9324989,39 21.8561994,38.9326906 22.7669918,38.7995208 L23.057169,38.757093 L29,41.4491829 L29,36.7441156 Z M30,37.3206667 L30,43 L22.9116667,39.789 C21.961,39.928 20.989,40 20,40 C8.96166667,40 0,31.0383333 0,20 C0,8.96166667 8.96166667,0 20,0 C31.0383333,0 40,8.96166667 40,20 C40,27.3963333 35.9763333,33.8606667 30,37.3206667 Z"></path></svg>