<svg xmlns="http://www.w3.org/2000/svg" width="24" height="24" viewBox="0 0 48 48"><path class="svg-icon-fill" d="M31.4605729,28.6865357 L34,31.2259628 L31.2259628,34 L28.6865357,31.4605729 C27.195321,32.4341258 25.413744,33 23.5,33 C18.2532949,33 14,28.7467051 14,23.5 C14,18.2532949 18.2532949,14 23.5,14 C28.7467051,14 33,18.2532949 33,23.5 C33,25.413744 32.4341258,27.195321 31.4605729,28.6865357 Z M23.5,29 C26.5375661,29 29,26.5375661 29,23.5 C29,20.4624339 26.5375661,18 23.5,18 C20.4624339,18 18,20.4624339 18,23.5 C18,26.5375661 20.4624339,29 23.5,29 Z"></path></svg>